<svg width="30" height="30" fill="none" xmlns="http://www.w3.org/2000/svg"><mask id="a" style="mask-type:alpha" maskUnits="userSpaceOnUse" x="0" y="0" width="30" height="30"><path fill="#D9D9D9" d="M0 0h30v30H0z"/></mask><g mask="url(#a)"><path d="M15 18.719a1.288 1.288 0 0 1-.875-.344l-5.75-5.75c-.23-.23-.344-.52-.344-.875 0-.354.115-.646.344-.875.23-.23.52-.344.875-.344.354 0 .646.115.875.344L15 15.75l4.875-4.875c.23-.23.52-.344.875-.344.354 0 .646.115.875.344.23.23.344.52.344.875 0 .354-.115.646-.344.875l-5.75 5.75a1.09 1.09 0 0 1-.406.265 1.374 1.374 0 0 1-.469.079Z" fill="#000"/></g></svg>